<svg width="546" height="219" viewBox="0 0 546 219" fill="none" xmlns="http://www.w3.org/2000/svg">
<path d="M167.276 146.267C161.964 161.811 153.423 175.895 142.283 187.481C128.312 201.353 111.633 211.809 93.4243 218.11C91.8959 218.677 90.2904 218.978 88.6708 219H88.4975C87.5209 218.999 86.5467 218.898 85.5885 218.699C84.9088 218.554 84.2389 218.361 83.5831 218.123C65.3579 211.832 48.6613 201.381 34.6745 187.507C23.5311 175.929 14.9896 161.848 9.68171 146.306C1.63467 118.272 -1.43755 88.9036 0.62043 59.6857V59.2927C0.719461 57.1705 0.781354 54.9434 0.818491 52.4543C0.927419 46.6163 3.11237 41.0365 6.93733 36.8283C10.7623 32.6201 15.946 30.0929 21.4539 29.7512C43.1646 29.2763 63.8819 20.0338 79.3619 3.91707L79.5105 3.78607C81.9596 1.39321 85.1705 0.0644531 88.5037 0.0644531C91.8369 0.0644531 95.0478 1.39321 97.4969 3.78607L97.6331 3.91707C113.114 20.0327 133.831 29.275 155.541 29.7512C161.051 30.0898 166.238 32.6155 170.066 36.8241C173.893 41.0326 176.08 46.6142 176.189 52.4543C176.189 54.9303 176.288 57.1574 176.375 59.2534V59.4237C178.438 88.7177 175.353 118.163 167.276 146.267Z" fill="#229A86"/>
<path d="M167.289 146.254C161.976 161.798 153.436 175.882 142.296 187.468C128.325 201.34 111.645 211.795 93.4367 218.097C91.9083 218.664 90.3029 218.965 88.6832 218.987V0C91.954 0.0481606 95.0928 1.37311 97.497 3.72053L97.6332 3.85154C113.114 19.9671 133.831 29.2094 155.541 29.6857C161.055 30.0246 166.246 32.554 170.074 36.7681C173.902 40.9822 176.086 46.5703 176.189 52.415C176.189 54.8909 176.288 57.118 176.375 59.2141V59.3844C178.445 88.6862 175.364 118.14 167.289 146.254Z" fill="#004C7A"/>
<path d="M140.055 109.521C140.039 123.953 134.627 137.792 125.002 148.015C115.377 158.238 102.32 164.015 88.6833 164.084H88.4976C81.7269 164.084 75.0226 162.673 68.7674 159.931C62.5121 157.189 56.8284 153.17 52.0408 148.103C47.2532 143.037 43.4556 137.021 40.8645 130.402C38.2735 123.782 36.9399 116.686 36.9399 109.521C36.9399 102.356 38.2735 95.2603 40.8645 88.6404C43.4556 82.0205 47.2532 76.0056 52.0408 70.9389C56.8284 65.8722 62.5121 61.8531 68.7674 59.111C75.0226 56.3689 81.7269 54.9575 88.4976 54.9575H88.6833C102.32 55.0267 115.377 60.8038 125.002 71.0271C134.627 81.2503 140.039 95.0892 140.055 109.521Z" fill="white"/>
<path d="M111.894 101.674L88.6712 126.25L83.6576 131.556C82.518 132.761 80.973 133.438 79.3622 133.438C77.7513 133.438 76.2064 132.761 75.0667 131.556L64.285 120.133C63.7217 119.537 63.2748 118.829 62.9699 118.05C62.6651 117.271 62.5083 116.436 62.5083 115.593C62.5083 114.75 62.6651 113.915 62.9699 113.137C63.2748 112.358 63.7217 111.65 64.285 111.054C64.8482 110.458 65.5168 109.985 66.2528 109.662C66.9887 109.34 67.7776 109.174 68.5742 109.174C69.3708 109.174 70.1594 109.34 70.8954 109.662C71.6313 109.985 72.3001 110.458 72.8634 111.054L79.3622 117.932L103.315 92.5824C104.453 91.3785 105.996 90.7021 107.605 90.7021C109.213 90.7021 110.756 91.3785 111.894 92.5824C113.031 93.7863 113.67 95.4191 113.67 97.1216C113.67 98.8242 113.031 100.457 111.894 101.661V101.674Z" fill="#229A86"/>
<path d="M111.893 101.674L88.6708 126.25V108.08L103.302 92.5951C104.44 91.3912 105.983 90.7148 107.592 90.7148C109.2 90.7148 110.744 91.3912 111.881 92.5951C113.019 93.799 113.658 95.432 113.658 97.1345C113.658 98.8371 113.019 100.47 111.881 101.674H111.893Z" fill="#004C7A"/>
<path d="M213.04 39.44C218.6 39.44 222.24 36.4 222.24 31.76C222.24 26.92 217.92 25.36 212.96 23.72C208.96 22.4 206.12 21.36 206.12 18C206.12 14.88 208.56 12.6 212.44 12.6C216.44 12.6 218.6 14.92 219.64 17.44L221.44 16.44C220.08 13.2 217.04 10.56 212.44 10.56C207.68 10.56 203.96 13.48 203.96 18.08C203.96 22.96 208.16 24.28 212.84 25.8C217.12 27.16 220.08 28.44 220.08 31.8C220.08 35 217.72 37.4 213.04 37.4C208.44 37.4 205.6 35.12 204.64 31.76L202.8 32.84C204.08 36.8 207.8 39.44 213.04 39.44ZM236.596 18.56C230.476 18.56 226.236 23.12 226.236 29C226.236 35.04 230.596 39.44 236.756 39.44C240.716 39.44 243.836 37.64 245.476 34.92L243.716 33.88C242.556 36 240.076 37.52 236.796 37.52C232.236 37.52 228.796 34.56 228.316 30.04H246.436C246.436 29.72 246.476 29.4 246.476 29.08C246.476 23.6 242.676 18.56 236.596 18.56ZM236.596 20.48C240.516 20.48 243.956 23.2 244.396 28.08H228.316C228.716 23.64 232.036 20.48 236.596 20.48ZM260.31 39.44C264.23 39.44 267.59 37.44 269.19 34.36L267.51 33.36C266.19 35.84 263.55 37.52 260.31 37.52C255.47 37.52 251.83 33.76 251.83 29C251.83 24.24 255.47 20.48 260.31 20.48C263.51 20.48 266.23 22.12 267.39 24.64L269.03 23.68C267.59 20.56 264.23 18.56 260.31 18.56C254.27 18.56 249.79 23.08 249.79 29C249.79 34.92 254.27 39.44 260.31 39.44ZM287.972 19V29.56C287.972 34.96 284.892 37.52 280.972 37.52C277.212 37.52 275.092 35.12 275.092 31.44V19H273.052V31.44C273.052 36.28 276.052 39.44 280.812 39.44C283.892 39.44 286.452 38.16 287.972 35.2V39H289.972V19H287.972ZM298.15 22.92V19H296.15V39H298.15V27.88C298.15 22.76 301.39 20.64 304.83 20.64V18.72C302.11 18.72 299.51 19.76 298.15 22.92ZM316.674 18.56C310.554 18.56 306.314 23.12 306.314 29C306.314 35.04 310.674 39.44 316.834 39.44C320.794 39.44 323.914 37.64 325.554 34.92L323.794 33.88C322.634 36 320.154 37.52 316.874 37.52C312.314 37.52 308.874 34.56 308.394 30.04H326.514C326.514 29.72 326.554 29.4 326.554 29.08C326.554 23.6 322.754 18.56 316.674 18.56ZM316.674 20.48C320.594 20.48 324.034 23.2 324.474 28.08H308.394C308.794 23.64 312.114 20.48 316.674 20.48ZM348.868 11V23.64C347.228 20.56 344.148 18.56 340.268 18.56C334.548 18.56 329.908 23.08 329.908 29C329.908 34.92 334.548 39.44 340.268 39.44C344.148 39.44 347.228 37.44 348.868 34.36V39H350.868V11H348.868ZM340.388 37.52C335.628 37.52 331.908 33.76 331.908 29C331.908 24.24 335.628 20.48 340.388 20.48C345.148 20.48 348.868 24.24 348.868 29C348.868 33.76 345.148 37.52 340.388 37.52ZM377.594 11H368.074V39H370.194V28.32H377.594C382.634 28.32 386.314 24.6 386.314 19.68C386.314 14.72 382.634 11 377.594 11ZM377.594 26.32H370.194V13H377.594C381.434 13 384.194 15.8 384.194 19.68C384.194 23.52 381.434 26.32 377.594 26.32ZM407.149 19V23.52C405.469 20.52 402.389 18.56 398.549 18.56C392.869 18.56 388.189 23.08 388.189 29C388.189 34.92 392.869 39.44 398.549 39.44C402.389 39.44 405.469 37.48 407.149 34.48V39H409.189V19H407.149ZM398.709 37.52C393.949 37.52 390.229 33.76 390.229 29C390.229 24.24 393.949 20.48 398.709 20.48C403.469 20.48 407.149 24.24 407.149 29C407.149 33.76 403.469 37.52 398.709 37.52ZM429.97 19L423.01 36.8L414.93 19H412.77L421.97 39.36L421.53 40.44C420.29 43.36 418.25 45.36 415.57 45.12V47C419.01 47.28 421.97 44.68 423.49 40.84L432.13 19H429.97ZM457.081 18.56C454.401 18.56 451.841 19.84 450.401 22.64C449.361 20 447.081 18.56 444.161 18.56C441.601 18.56 439.201 19.68 437.721 22.44V19H435.721V39H437.721V27.84C437.721 22.72 440.641 20.48 443.921 20.48C447.001 20.48 449.041 22.52 449.041 26.32V39H451.041V27.84C451.041 22.72 453.681 20.48 457.041 20.48C460.161 20.48 462.361 22.52 462.361 26.32V39H464.361V26.32C464.361 21.32 461.321 18.56 457.081 18.56ZM479.018 18.56C472.898 18.56 468.658 23.12 468.658 29C468.658 35.04 473.018 39.44 479.178 39.44C483.138 39.44 486.258 37.64 487.898 34.92L486.138 33.88C484.978 36 482.498 37.52 479.218 37.52C474.658 37.52 471.218 34.56 470.738 30.04H488.858C488.858 29.72 488.898 29.4 488.898 29.08C488.898 23.6 485.098 18.56 479.018 18.56ZM479.018 20.48C482.938 20.48 486.378 23.2 486.818 28.08H470.738C471.138 23.64 474.458 20.48 479.018 20.48ZM502.732 18.56C499.652 18.56 497.092 19.84 495.572 22.8V19H493.572V39H495.572V28.44C495.572 23.04 498.652 20.48 502.572 20.48C506.332 20.48 508.452 22.88 508.452 26.56V39H510.492V26.56C510.492 21.72 507.492 18.56 502.732 18.56ZM526.39 20.96V19H520.43V13.4L518.39 14V19H513.99V20.96H518.39V33.96C518.39 38.52 521.15 39.8 526.39 39V37.2C522.31 37.56 520.43 37.48 520.43 33.96V20.96H526.39ZM531.338 24.24C531.338 21.84 533.538 20.48 536.138 20.48C538.338 20.48 540.418 21.44 541.258 23.52L542.938 22.56C541.858 20.12 539.378 18.56 536.138 18.56C532.058 18.56 529.338 21.08 529.338 24.24C529.338 31.44 541.458 28.32 541.458 33.76C541.458 36.28 539.098 37.52 536.298 37.52C533.298 37.52 531.138 36.16 530.418 34L528.698 35C529.658 37.56 532.298 39.44 536.298 39.44C540.578 39.44 543.458 37.04 543.458 33.76C543.458 26.44 531.338 29.6 531.338 24.24Z" fill="white"/>
<path d="M261.981 86L293 134.006L227.794 182L261.981 86Z" fill="#27803B"/>
<path d="M240.237 86L271.233 134.006L206 182L240.237 86Z" fill="#E9661C"/>
<path d="M399.165 104.576C390.568 98.1549 379.574 101.97 374.606 113.093L362.082 141.162C358.458 149.267 363.123 152.1 368.325 156.135L380.377 165.134C384.458 168.179 389.67 166.371 392.024 161.099L404.899 132.253C409.224 122.56 406.658 110.172 399.165 104.576Z" fill="#EA4335"/>
<path d="M384.994 116.193L372.943 107.195C366.291 102.417 362.523 102.101 359.792 107.717L342.018 147.542C337.055 158.658 340.01 172.875 348.602 179.282C356.094 184.877 365.669 181.557 369.994 171.864L388.108 131.269C390.473 125.99 389.075 119.239 384.994 116.193Z" fill="#FBBC04"/>
<path d="M387.314 95.7216L378.849 89.397C369.487 82.4056 357.515 86.551 352.112 98.664L335.995 134.776C333.615 140.104 335.028 146.923 339.146 149.996L348.626 157.077C353.307 160.577 359.29 158.5 361.995 152.444L380.406 111.19C384.221 102.644 392.665 99.7158 399.269 104.652L387.314 95.7216Z" fill="#34A853"/>
<path d="M354.401 108.997L345.251 102.177C341.17 99.1386 335.957 100.94 333.604 106.206L322.626 130.748C317.222 142.826 320.426 158.281 329.788 165.252L336.755 170.442L345.203 176.739L348.869 179.468C342.36 173.831 340.293 162.536 344.273 153.64L347.116 147.288L357.525 124.018C359.874 118.766 358.476 112.035 354.401 108.997Z" fill="#4285F4"/>
<path d="M517.691 143.169C522.28 121.723 510.245 100.233 490.809 95.1691C471.374 90.1052 451.899 103.385 447.309 124.831C442.72 146.277 454.755 167.767 474.191 172.831C493.626 177.895 513.101 164.615 517.691 143.169Z" fill="#5F259F"/>
<path d="M498.914 123.59C498.914 122.029 497.702 120.692 496.288 120.692H491.44L480.329 106.649C479.319 105.311 477.703 104.866 476.087 105.311L472.249 106.649C471.643 106.872 471.441 107.763 471.845 108.209L483.965 120.915H465.583C464.977 120.915 464.573 121.361 464.573 122.029V124.259C464.573 125.819 465.785 127.156 467.199 127.156H470.027V137.856C470.027 145.88 473.865 150.561 480.329 150.561C482.349 150.561 483.965 150.339 485.986 149.447V156.58C485.986 158.586 487.4 160.146 489.218 160.146H492.046C492.652 160.146 493.258 159.478 493.258 158.809V126.933H497.904C498.51 126.933 498.914 126.488 498.914 125.819V123.59ZM485.986 142.76C484.774 143.428 483.157 143.651 481.945 143.651C478.713 143.651 477.097 141.868 477.097 137.856V127.156H485.986V142.76Z" fill="white"/>
</svg>
