<svg width="471" height="248" viewBox="0 0 471 248" fill="none" xmlns="http://www.w3.org/2000/svg">
<path d="M0 37C0 16.5655 16.5655 0 37 0H434C454.435 0 471 16.5655 471 37V55H0V37Z" fill="url(#paint0_linear)"/>
<path d="M45.3 20H48.09V41H45.84L35.04 25.31V41H32.25V20H34.5L45.3 35.66V20ZM64.972 39.11C63.432 40.63 61.562 41.39 59.362 41.39C57.162 41.39 55.292 40.63 53.752 39.11C52.232 37.59 51.472 35.72 51.472 33.5C51.472 31.28 52.232 29.41 53.752 27.89C55.292 26.37 57.162 25.61 59.362 25.61C61.562 25.61 63.432 26.37 64.972 27.89C66.512 29.41 67.282 31.28 67.282 33.5C67.282 35.72 66.512 37.59 64.972 39.11ZM59.362 38.84C60.862 38.84 62.122 38.33 63.142 37.31C64.162 36.29 64.672 35.02 64.672 33.5C64.672 31.98 64.162 30.71 63.142 29.69C62.122 28.67 60.862 28.16 59.362 28.16C57.882 28.16 56.632 28.67 55.612 29.69C54.592 30.71 54.082 31.98 54.082 33.5C54.082 35.02 54.592 36.29 55.612 37.31C56.632 38.33 57.882 38.84 59.362 38.84ZM78.1966 28.52H74.2066V36.65C74.2066 37.39 74.3466 37.92 74.6266 38.24C74.9266 38.54 75.3766 38.7 75.9766 38.72C76.5766 38.72 77.3166 38.7 78.1966 38.66V41C75.9166 41.3 74.2466 41.12 73.1866 40.46C72.1266 39.78 71.5966 38.51 71.5966 36.65V28.52H68.6266V26H71.5966V22.58L74.2066 21.8V26H78.1966V28.52ZM82.6066 23.27C82.1066 23.27 81.6866 23.1 81.3466 22.76C81.0066 22.42 80.8366 22.01 80.8366 21.53C80.8366 21.05 81.0066 20.64 81.3466 20.3C81.6866 19.94 82.1066 19.76 82.6066 19.76C83.0866 19.76 83.4966 19.94 83.8366 20.3C84.1766 20.64 84.3466 21.05 84.3466 21.53C84.3466 22.01 84.1766 22.42 83.8366 22.76C83.4966 23.1 83.0866 23.27 82.6066 23.27ZM81.2866 41V26H83.8966V41H81.2866ZM99.7884 26V41H97.1784V28.52H91.6284V41H89.0184V28.52H86.6184V26H89.0184V25.55C89.0184 21.59 91.2084 19.61 95.5884 19.61C96.4084 19.61 97.4384 19.74 98.6784 20V22.37C97.4584 22.21 96.4284 22.13 95.5884 22.13C94.2284 22.13 93.2284 22.39 92.5884 22.91C91.9484 23.41 91.6284 24.29 91.6284 25.55V26H99.7884ZM110.837 41.39C108.577 41.39 106.697 40.64 105.197 39.14C103.697 37.62 102.947 35.74 102.947 33.5C102.947 31.26 103.697 29.39 105.197 27.89C106.697 26.37 108.577 25.61 110.837 25.61C112.317 25.61 113.647 25.97 114.827 26.69C116.007 27.39 116.887 28.34 117.467 29.54L115.277 30.8C114.897 30 114.307 29.36 113.507 28.88C112.727 28.4 111.837 28.16 110.837 28.16C109.337 28.16 108.077 28.67 107.057 29.69C106.057 30.71 105.557 31.98 105.557 33.5C105.557 35 106.057 36.26 107.057 37.28C108.077 38.3 109.337 38.81 110.837 38.81C111.837 38.81 112.737 38.58 113.537 38.12C114.337 37.64 114.947 37 115.367 36.2L117.587 37.49C116.947 38.67 116.027 39.62 114.827 40.34C113.627 41.04 112.297 41.39 110.837 41.39ZM132.379 26H134.989V41H132.379V38.42C131.079 40.4 129.189 41.39 126.709 41.39C124.609 41.39 122.819 40.63 121.339 39.11C119.859 37.57 119.119 35.7 119.119 33.5C119.119 31.3 119.859 29.44 121.339 27.92C122.819 26.38 124.609 25.61 126.709 25.61C129.189 25.61 131.079 26.6 132.379 28.58V26ZM127.039 38.87C128.559 38.87 129.829 38.36 130.849 37.34C131.869 36.3 132.379 35.02 132.379 33.5C132.379 31.98 131.869 30.71 130.849 29.69C129.829 28.65 128.559 28.13 127.039 28.13C125.539 28.13 124.279 28.65 123.259 29.69C122.239 30.71 121.729 31.98 121.729 33.5C121.729 35.02 122.239 36.3 123.259 37.34C124.279 38.36 125.539 38.87 127.039 38.87ZM147.103 28.52H143.113V36.65C143.113 37.39 143.253 37.92 143.533 38.24C143.833 38.54 144.283 38.7 144.883 38.72C145.483 38.72 146.223 38.7 147.103 38.66V41C144.823 41.3 143.153 41.12 142.093 40.46C141.033 39.78 140.503 38.51 140.503 36.65V28.52H137.533V26H140.503V22.58L143.113 21.8V26H147.103V28.52ZM151.513 23.27C151.013 23.27 150.593 23.1 150.253 22.76C149.913 22.42 149.743 22.01 149.743 21.53C149.743 21.05 149.913 20.64 150.253 20.3C150.593 19.94 151.013 19.76 151.513 19.76C151.993 19.76 152.403 19.94 152.743 20.3C153.083 20.64 153.253 21.05 153.253 21.53C153.253 22.01 153.083 22.42 152.743 22.76C152.403 23.1 151.993 23.27 151.513 23.27ZM150.193 41V26H152.803V41H150.193ZM169.445 39.11C167.905 40.63 166.035 41.39 163.835 41.39C161.635 41.39 159.765 40.63 158.225 39.11C156.705 37.59 155.945 35.72 155.945 33.5C155.945 31.28 156.705 29.41 158.225 27.89C159.765 26.37 161.635 25.61 163.835 25.61C166.035 25.61 167.905 26.37 169.445 27.89C170.985 29.41 171.755 31.28 171.755 33.5C171.755 35.72 170.985 37.59 169.445 39.11ZM163.835 38.84C165.335 38.84 166.595 38.33 167.615 37.31C168.635 36.29 169.145 35.02 169.145 33.5C169.145 31.98 168.635 30.71 167.615 29.69C166.595 28.67 165.335 28.16 163.835 28.16C162.355 28.16 161.105 28.67 160.085 29.69C159.065 30.71 158.555 31.98 158.555 33.5C158.555 35.02 159.065 36.29 160.085 37.31C161.105 38.33 162.355 38.84 163.835 38.84ZM182.302 25.61C184.062 25.61 185.472 26.17 186.532 27.29C187.592 28.39 188.122 29.89 188.122 31.79V41H185.512V31.94C185.512 30.72 185.182 29.78 184.522 29.12C183.862 28.44 182.952 28.1 181.792 28.1C180.492 28.1 179.442 28.51 178.642 29.33C177.842 30.13 177.442 31.37 177.442 33.05V41H174.832V26H177.442V28.16C178.502 26.46 180.122 25.61 182.302 25.61Z" fill="white"/>
<path d="M471 148C471 168.435 454.435 185 434 185L37 185C16.5655 185 0 168.435 0 148V57L471 57V148Z" fill="url(#paint1_linear)"/>
<path d="M452 182C452 202.435 435.435 219 415 219L55 219C34.5655 219 18 202.435 18 182V174L452 174V182Z" fill="url(#paint2_linear)" fill-opacity="0.7"/>
<path d="M434 211C434 231.435 417.435 248 397 248L74 248C53.5655 248 37 231.435 37 211V185L434 185V211Z" fill="url(#paint3_linear)" fill-opacity="0.2"/>
<path d="M43.675 85.5V93.375H33.5V85.5H32.175V103H33.5V94.625H43.675V103H45V85.5H43.675ZM54.7131 90.225C50.8881 90.225 48.2381 93.075 48.2381 96.75C48.2381 100.525 50.9631 103.275 54.8131 103.275C57.2881 103.275 59.2381 102.15 60.2631 100.45L59.1631 99.8C58.4381 101.125 56.8881 102.075 54.8381 102.075C51.9881 102.075 49.8381 100.225 49.5381 97.4H60.8631C60.8631 97.2 60.8881 97 60.8881 96.8C60.8881 93.375 58.5131 90.225 54.7131 90.225ZM54.7131 91.425C57.1631 91.425 59.3131 93.125 59.5881 96.175H49.5381C49.7881 93.4 51.8631 91.425 54.7131 91.425ZM72.4715 90.5L68.1215 101.625L63.0715 90.5H61.7215L67.4715 103.225L67.1965 103.9C66.4215 105.725 65.1465 106.975 63.4715 106.825V108C65.6215 108.175 67.4715 106.55 68.4215 104.15L73.8215 90.5H72.4715ZM87.1057 103.275C90.2057 103.275 92.7307 101.55 92.7307 98.2V85.5H91.3807V98.2C91.3807 100.7 89.6557 102 87.1057 102C85.1307 102 83.6307 101.25 83.0057 99.675L81.8807 100.35C82.7307 102.275 84.7057 103.275 87.1057 103.275ZM102.152 103.275C105.777 103.275 108.702 100.45 108.702 96.75C108.702 93.05 105.777 90.225 102.152 90.225C98.502 90.225 95.577 93.05 95.577 96.75C95.577 100.45 98.502 103.275 102.152 103.275ZM102.152 102.075C99.177 102.075 96.852 99.725 96.852 96.75C96.852 93.775 99.177 91.425 102.152 91.425C105.127 91.425 107.427 93.775 107.427 96.75C107.427 99.725 105.127 102.075 102.152 102.075ZM117.335 90.225C113.51 90.225 110.86 93.075 110.86 96.75C110.86 100.525 113.585 103.275 117.435 103.275C119.91 103.275 121.86 102.15 122.885 100.45L121.785 99.8C121.06 101.125 119.51 102.075 117.46 102.075C114.61 102.075 112.46 100.225 112.16 97.4H123.485C123.485 97.2 123.51 97 123.51 96.8C123.51 93.375 121.135 90.225 117.335 90.225ZM117.335 91.425C119.785 91.425 121.935 93.125 122.21 96.175H112.16C112.41 93.4 114.485 91.425 117.335 91.425ZM135.094 90.5L130.744 101.625L125.694 90.5H124.344L130.094 103.225L129.819 103.9C129.044 105.725 127.769 106.975 126.094 106.825V108C128.244 108.175 130.094 106.55 131.044 104.15L136.444 90.5H135.094ZM138.567 101.3H137.017L136.067 106.5H137.217L138.567 101.3ZM157.823 90.5L153.473 101.625L148.423 90.5H147.073L152.823 103.225L152.548 103.9C151.773 105.725 150.498 106.975 148.823 106.825V108C150.973 108.175 152.823 106.55 153.773 104.15L159.173 90.5H157.823ZM166.654 103.275C170.279 103.275 173.204 100.45 173.204 96.75C173.204 93.05 170.279 90.225 166.654 90.225C163.004 90.225 160.079 93.05 160.079 96.75C160.079 100.45 163.004 103.275 166.654 103.275ZM166.654 102.075C163.679 102.075 161.354 99.725 161.354 96.75C161.354 93.775 163.679 91.425 166.654 91.425C169.629 91.425 171.929 93.775 171.929 96.75C171.929 99.725 169.629 102.075 166.654 102.075ZM185.212 90.5V97.1C185.212 100.475 183.287 102.075 180.837 102.075C178.487 102.075 177.162 100.575 177.162 98.275V90.5H175.887V98.275C175.887 101.3 177.762 103.275 180.737 103.275C182.662 103.275 184.262 102.475 185.212 100.625V103H186.462V90.5H185.212ZM191.573 92.95V90.5H190.323V103H191.573V96.05C191.573 92.85 193.598 91.525 195.748 91.525V90.325C194.048 90.325 192.423 90.975 191.573 92.95ZM216.697 85.5V100.55L206.347 85.5H205.197V103H206.522V87.95L216.847 103H218.022V85.5H216.697ZM227.736 90.225C223.911 90.225 221.261 93.075 221.261 96.75C221.261 100.525 223.986 103.275 227.836 103.275C230.311 103.275 232.261 102.15 233.286 100.45L232.186 99.8C231.461 101.125 229.911 102.075 227.861 102.075C225.011 102.075 222.861 100.225 222.561 97.4H233.886C233.886 97.2 233.911 97 233.911 96.8C233.911 93.375 231.536 90.225 227.736 90.225ZM227.736 91.425C230.186 91.425 232.336 93.125 232.611 96.175H222.561C222.811 93.4 224.886 91.425 227.736 91.425ZM242.866 91.725V90.5H239.141V87L237.866 87.375V90.5H235.116V91.725H237.866V99.85C237.866 102.7 239.591 103.5 242.866 103V101.875C240.316 102.1 239.141 102.05 239.141 99.85V91.725H242.866ZM250.96 85.225C247.685 85.225 245.96 86.75 245.96 89.825V90.5H243.81V91.725H245.96V103H247.235V91.725H250.21V90.5H247.235V89.825C247.235 87.4 248.41 86.375 250.96 86.375C251.56 86.375 252.135 86.4 252.71 86.475V103H253.985V85.5C252.935 85.325 252.035 85.225 250.96 85.225ZM258.429 87.475C258.979 87.475 259.429 87.025 259.429 86.475C259.429 85.95 258.979 85.5 258.429 85.5C257.879 85.5 257.429 85.95 257.429 86.475C257.429 87.025 257.879 87.475 258.429 87.475ZM257.804 103H259.054V90.5H257.804V103ZM273.056 103L268.081 96.55L272.756 90.5H271.256L267.306 95.575L263.381 90.5H261.856L266.556 96.575L261.556 103H263.081L267.306 97.55L271.531 103H273.056ZM283.092 93.775C283.092 92.275 284.467 91.425 286.092 91.425C287.467 91.425 288.767 92.025 289.292 93.325L290.342 92.725C289.667 91.2 288.117 90.225 286.092 90.225C283.542 90.225 281.842 91.8 281.842 93.775C281.842 98.275 289.417 96.325 289.417 99.725C289.417 101.3 287.942 102.075 286.192 102.075C284.317 102.075 282.967 101.225 282.517 99.875L281.442 100.5C282.042 102.1 283.692 103.275 286.192 103.275C288.867 103.275 290.667 101.775 290.667 99.725C290.667 95.15 283.092 97.125 283.092 93.775ZM302.571 90.5V97.1C302.571 100.475 300.646 102.075 298.196 102.075C295.846 102.075 294.521 100.575 294.521 98.275V90.5H293.246V98.275C293.246 101.3 295.121 103.275 298.096 103.275C300.021 103.275 301.621 102.475 302.571 100.625V103H303.821V90.5H302.571ZM314.307 90.225C311.882 90.225 309.957 91.475 308.932 93.4V85.5H307.682V103H308.932V100.1C309.957 102.025 311.882 103.275 314.307 103.275C317.882 103.275 320.782 100.45 320.782 96.75C320.782 93.05 317.882 90.225 314.307 90.225ZM314.232 102.075C311.257 102.075 308.932 99.725 308.932 96.75C308.932 93.775 311.257 91.425 314.232 91.425C317.207 91.425 319.532 93.775 319.532 96.75C319.532 99.725 317.207 102.075 314.232 102.075ZM324.401 93.775C324.401 92.275 325.776 91.425 327.401 91.425C328.776 91.425 330.076 92.025 330.601 93.325L331.651 92.725C330.976 91.2 329.426 90.225 327.401 90.225C324.851 90.225 323.151 91.8 323.151 93.775C323.151 98.275 330.726 96.325 330.726 99.725C330.726 101.3 329.251 102.075 327.501 102.075C325.626 102.075 324.276 101.225 323.826 99.875L322.751 100.5C323.351 102.1 325.001 103.275 327.501 103.275C330.176 103.275 331.976 101.775 331.976 99.725C331.976 95.15 324.401 97.125 324.401 93.775ZM340.36 103.275C342.81 103.275 344.91 102.025 345.91 100.1L344.86 99.475C344.035 101.025 342.385 102.075 340.36 102.075C337.335 102.075 335.06 99.725 335.06 96.75C335.06 93.775 337.335 91.425 340.36 91.425C342.36 91.425 344.06 92.45 344.785 94.025L345.81 93.425C344.91 91.475 342.81 90.225 340.36 90.225C336.585 90.225 333.785 93.05 333.785 96.75C333.785 100.45 336.585 103.275 340.36 103.275ZM349.899 92.95V90.5H348.649V103H349.899V96.05C349.899 92.85 351.924 91.525 354.074 91.525V90.325C352.374 90.325 350.749 90.975 349.899 92.95ZM357.233 87.475C357.783 87.475 358.233 87.025 358.233 86.475C358.233 85.95 357.783 85.5 357.233 85.5C356.683 85.5 356.233 85.95 356.233 86.475C356.233 87.025 356.683 87.475 357.233 87.475ZM356.608 103H357.858V90.5H356.608V103ZM368.335 90.225C365.91 90.225 363.985 91.475 362.96 93.4V90.5H361.71V108H362.96V100.1C363.985 102.025 365.91 103.275 368.335 103.275C371.91 103.275 374.81 100.45 374.81 96.75C374.81 93.05 371.91 90.225 368.335 90.225ZM368.26 102.075C365.285 102.075 362.96 99.725 362.96 96.75C362.96 93.775 365.285 91.425 368.26 91.425C371.235 91.425 373.56 93.775 373.56 96.75C373.56 99.725 371.235 102.075 368.26 102.075ZM383.979 91.725V90.5H380.254V87L378.979 87.375V90.5H376.229V91.725H378.979V99.85C378.979 102.7 380.704 103.5 383.979 103V101.875C381.429 102.1 380.254 102.05 380.254 99.85V91.725H383.979ZM387.604 87.475C388.154 87.475 388.604 87.025 388.604 86.475C388.604 85.95 388.154 85.5 387.604 85.5C387.054 85.5 386.604 85.95 386.604 86.475C386.604 87.025 387.054 87.475 387.604 87.475ZM386.979 103H388.229V90.5H386.979V103ZM397.806 103.275C401.431 103.275 404.356 100.45 404.356 96.75C404.356 93.05 401.431 90.225 397.806 90.225C394.156 90.225 391.231 93.05 391.231 96.75C391.231 100.45 394.156 103.275 397.806 103.275ZM397.806 102.075C394.831 102.075 392.506 99.725 392.506 96.75C392.506 93.775 394.831 91.425 397.806 91.425C400.781 91.425 403.081 93.775 403.081 96.75C403.081 99.725 400.781 102.075 397.806 102.075ZM413.089 90.225C411.164 90.225 409.564 91.025 408.614 92.875V90.5H407.364V103H408.614V96.4C408.614 93.025 410.539 91.425 412.989 91.425C415.339 91.425 416.664 92.925 416.664 95.225V103H417.939V95.225C417.939 92.2 416.064 90.225 413.089 90.225ZM32.55 116.475C33.1 116.475 33.55 116.025 33.55 115.475C33.55 114.95 33.1 114.5 32.55 114.5C32 114.5 31.55 114.95 31.55 115.475C31.55 116.025 32 116.475 32.55 116.475ZM31.925 132H33.175V119.5H31.925V132ZM37.8775 122.775C37.8775 121.275 39.2525 120.425 40.8775 120.425C42.2525 120.425 43.5525 121.025 44.0775 122.325L45.1275 121.725C44.4525 120.2 42.9025 119.225 40.8775 119.225C38.3275 119.225 36.6275 120.8 36.6275 122.775C36.6275 127.275 44.2025 125.325 44.2025 128.725C44.2025 130.3 42.7275 131.075 40.9775 131.075C39.1025 131.075 37.7525 130.225 37.3025 128.875L36.2275 129.5C36.8275 131.1 38.4775 132.275 40.9775 132.275C43.6525 132.275 45.4525 130.775 45.4525 128.725C45.4525 124.15 37.8775 126.125 37.8775 122.775ZM60.7678 119.225C56.9428 119.225 54.2928 122.075 54.2928 125.75C54.2928 129.525 57.0178 132.275 60.8678 132.275C63.3428 132.275 65.2928 131.15 66.3178 129.45L65.2178 128.8C64.4928 130.125 62.9428 131.075 60.8928 131.075C58.0428 131.075 55.8928 129.225 55.5928 126.4H66.9178C66.9178 126.2 66.9428 126 66.9428 125.8C66.9428 122.375 64.5678 119.225 60.7678 119.225ZM60.7678 120.425C63.2178 120.425 65.3678 122.125 65.6428 125.175H55.5928C55.8428 122.4 57.9178 120.425 60.7678 120.425ZM79.5262 132L74.5512 125.55L79.2262 119.5H77.7262L73.7762 124.575L69.8512 119.5H68.3262L73.0262 125.575L68.0262 132H69.5512L73.7762 126.55L78.0012 132H79.5262ZM88.6721 119.225C86.2471 119.225 84.3221 120.475 83.2971 122.4V119.5H82.0471V137H83.2971V129.1C84.3221 131.025 86.2471 132.275 88.6721 132.275C92.2471 132.275 95.1471 129.45 95.1471 125.75C95.1471 122.05 92.2471 119.225 88.6721 119.225ZM88.5971 131.075C85.6221 131.075 83.2971 128.725 83.2971 125.75C83.2971 122.775 85.6221 120.425 88.5971 120.425C91.5721 120.425 93.8971 122.775 93.8971 125.75C93.8971 128.725 91.5721 131.075 88.5971 131.075ZM98.7854 116.475C99.3354 116.475 99.7854 116.025 99.7854 115.475C99.7854 114.95 99.3354 114.5 98.7854 114.5C98.2354 114.5 97.7854 114.95 97.7854 115.475C97.7854 116.025 98.2354 116.475 98.7854 116.475ZM98.1604 132H99.4104V119.5H98.1604V132ZM104.513 121.95V119.5H103.263V132H104.513V125.05C104.513 121.85 106.538 120.525 108.688 120.525V119.325C106.988 119.325 105.363 119.975 104.513 121.95ZM111.847 116.475C112.397 116.475 112.847 116.025 112.847 115.475C112.847 114.95 112.397 114.5 111.847 114.5C111.297 114.5 110.847 114.95 110.847 115.475C110.847 116.025 111.297 116.475 111.847 116.475ZM111.222 132H112.472V119.5H111.222V132ZM122.049 119.225C120.124 119.225 118.524 120.025 117.574 121.875V119.5H116.324V132H117.574V125.4C117.574 122.025 119.499 120.425 121.949 120.425C124.299 120.425 125.624 121.925 125.624 124.225V132H126.899V124.225C126.899 121.2 125.024 119.225 122.049 119.225ZM141.536 119.5V122.4C140.511 120.475 138.586 119.225 136.161 119.225C132.586 119.225 129.686 122.05 129.686 125.75C129.686 129.45 132.586 132.275 136.161 132.275C138.586 132.275 140.511 131.025 141.536 129.1V131.4C141.536 134.25 139.686 136.075 136.561 136.075C133.811 136.075 132.411 134.975 131.761 133.65L130.661 134.275C131.561 136.1 133.636 137.275 136.561 137.275C140.011 137.275 142.786 135.15 142.786 131.4V119.5H141.536ZM136.236 131.075C133.261 131.075 130.936 128.725 130.936 125.75C130.936 122.775 133.261 120.425 136.236 120.425C139.211 120.425 141.536 122.775 141.536 125.75C141.536 128.725 139.211 131.075 136.236 131.075ZM153.937 116.475C154.487 116.475 154.937 116.025 154.937 115.475C154.937 114.95 154.487 114.5 153.937 114.5C153.387 114.5 152.937 114.95 152.937 115.475C152.937 116.025 153.387 116.475 153.937 116.475ZM153.312 132H154.562V119.5H153.312V132ZM164.139 119.225C162.214 119.225 160.614 120.025 159.664 121.875V119.5H158.414V132H159.664V125.4C159.664 122.025 161.589 120.425 164.039 120.425C166.389 120.425 167.714 121.925 167.714 124.225V132H168.989V124.225C168.989 121.2 167.114 119.225 164.139 119.225ZM185.591 120.725V119.5H181.866V116L180.591 116.375V119.5H177.841V120.725H180.591V128.85C180.591 131.7 182.316 132.5 185.591 132V130.875C183.041 131.1 181.866 131.05 181.866 128.85V120.725H185.591ZM194.315 119.225C192.39 119.225 190.79 120.025 189.84 121.875V114.5H188.59V132H189.84V125.4C189.84 122.025 191.765 120.425 194.215 120.425C196.565 120.425 197.89 121.925 197.89 124.225V132H199.165V124.225C199.165 121.2 197.29 119.225 194.315 119.225ZM208.326 119.225C204.501 119.225 201.851 122.075 201.851 125.75C201.851 129.525 204.576 132.275 208.426 132.275C210.901 132.275 212.851 131.15 213.876 129.45L212.776 128.8C212.051 130.125 210.501 131.075 208.451 131.075C205.601 131.075 203.451 129.225 203.151 126.4H214.476C214.476 126.2 214.501 126 214.501 125.8C214.501 122.375 212.126 119.225 208.326 119.225ZM208.326 120.425C210.776 120.425 212.926 122.125 213.201 125.175H203.151C203.401 122.4 205.476 120.425 208.326 120.425ZM229.813 119.225C227.888 119.225 226.288 120.025 225.338 121.875V119.5H224.088V132H225.338V125.4C225.338 122.025 227.263 120.425 229.713 120.425C232.063 120.425 233.388 121.925 233.388 124.225V132H234.663V124.225C234.663 121.2 232.788 119.225 229.813 119.225ZM243.824 119.225C239.999 119.225 237.349 122.075 237.349 125.75C237.349 129.525 240.074 132.275 243.924 132.275C246.399 132.275 248.349 131.15 249.374 129.45L248.274 128.8C247.549 130.125 245.999 131.075 243.949 131.075C241.099 131.075 238.949 129.225 238.649 126.4H249.974C249.974 126.2 249.999 126 249.999 125.8C249.999 122.375 247.624 119.225 243.824 119.225ZM243.824 120.425C246.274 120.425 248.424 122.125 248.699 125.175H238.649C238.899 122.4 240.974 120.425 243.824 120.425ZM262.583 132L257.608 125.55L262.283 119.5H260.783L256.833 124.575L252.908 119.5H251.383L256.083 125.575L251.083 132H252.608L256.833 126.55L261.058 132H262.583ZM271.504 120.725V119.5H267.779V116L266.504 116.375V119.5H263.754V120.725H266.504V128.85C266.504 131.7 268.229 132.5 271.504 132V130.875C268.954 131.1 267.779 131.05 267.779 128.85V120.725H271.504ZM286.518 121.775L290.718 115.75V114.5H280.643V115.75H289.193L284.768 122.025L285.343 122.9H285.718C288.318 122.9 290.218 124.425 290.218 126.95C290.218 129.475 288.318 131 285.768 131C283.568 131 281.943 130.05 281.293 128.3L280.193 128.95C281.043 131.1 283.218 132.275 285.768 132.275C288.868 132.275 291.543 130.325 291.543 126.95C291.543 123.875 289.293 122.05 286.518 121.775ZM312.335 114.5V122.4C311.31 120.475 309.385 119.225 306.96 119.225C303.385 119.225 300.485 122.05 300.485 125.75C300.485 129.45 303.385 132.275 306.96 132.275C309.385 132.275 311.31 131.025 312.335 129.1V132H313.585V114.5H312.335ZM307.035 131.075C304.06 131.075 301.735 128.725 301.735 125.75C301.735 122.775 304.06 120.425 307.035 120.425C310.01 120.425 312.335 122.775 312.335 125.75C312.335 128.725 310.01 131.075 307.035 131.075ZM328.423 119.5V122.325C327.373 120.45 325.448 119.225 323.048 119.225C319.498 119.225 316.573 122.05 316.573 125.75C316.573 129.45 319.498 132.275 323.048 132.275C325.448 132.275 327.373 131.05 328.423 129.175V132H329.698V119.5H328.423ZM323.148 131.075C320.173 131.075 317.848 128.725 317.848 125.75C317.848 122.775 320.173 120.425 323.148 120.425C326.123 120.425 328.423 122.775 328.423 125.75C328.423 128.725 326.123 131.075 323.148 131.075ZM342.686 119.5L338.336 130.625L333.286 119.5H331.936L337.686 132.225L337.411 132.9C336.636 134.725 335.361 135.975 333.686 135.825V137C335.836 137.175 337.686 135.55 338.636 133.15L344.036 119.5H342.686ZM346.374 122.775C346.374 121.275 347.749 120.425 349.374 120.425C350.749 120.425 352.049 121.025 352.574 122.325L353.624 121.725C352.949 120.2 351.399 119.225 349.374 119.225C346.824 119.225 345.124 120.8 345.124 122.775C345.124 127.275 352.699 125.325 352.699 128.725C352.699 130.3 351.224 131.075 349.474 131.075C347.599 131.075 346.249 130.225 345.799 128.875L344.724 129.5C345.324 131.1 346.974 132.275 349.474 132.275C352.149 132.275 353.949 130.775 353.949 128.725C353.949 124.15 346.374 126.125 346.374 122.775ZM357.48 132.25C358.105 132.25 358.605 131.75 358.605 131.125C358.605 130.5 358.105 130 357.48 130C356.83 130 356.355 130.5 356.355 131.125C356.355 131.75 356.83 132.25 357.48 132.25Z" fill="white"/>
<defs>
<linearGradient id="paint0_linear" x1="3.52119e-06" y1="28" x2="471" y2="28" gradientUnits="userSpaceOnUse">
<stop stop-color="#229A86"/>
<stop offset="1" stop-color="#00304D"/>
</linearGradient>
<linearGradient id="paint1_linear" x1="0" y1="185" x2="471" y2="185" gradientUnits="userSpaceOnUse">
<stop stop-color="#229A86"/>
<stop offset="1" stop-color="#00304D"/>
</linearGradient>
<linearGradient id="paint2_linear" x1="18" y1="219" x2="452" y2="219" gradientUnits="userSpaceOnUse">
<stop stop-color="#229A86"/>
<stop offset="1" stop-color="#00304D"/>
</linearGradient>
<linearGradient id="paint3_linear" x1="37" y1="248" x2="434" y2="248" gradientUnits="userSpaceOnUse">
<stop stop-color="#229A86"/>
<stop offset="1" stop-color="#00304D"/>
</linearGradient>
</defs>
</svg>
