<svg width="600" height="627" viewBox="0 0 600 627" fill="none" xmlns="http://www.w3.org/2000/svg">
<g filter="url(#filter0_f)">
<path d="M20.8176 201.202C40.4863 196.052 59.9767 191.649 79.1958 188.015C98.5021 184.305 117.488 181.327 136.25 178.898C173.811 174.105 210.04 171.889 244.486 172.277C279.033 172.658 311.461 175.89 341.284 181.925C348.907 183.271 355.904 185.253 363.149 186.973C366.711 187.903 370.101 188.99 373.577 189.998C377.053 191.006 380.558 191.988 383.753 193.231L393.69 196.7C395.378 197.252 396.951 197.908 398.547 198.608L403.304 200.569L408.045 202.538C409.634 203.186 411.232 203.807 412.685 204.56L421.672 208.855C445.229 220.636 465.327 235.101 481.64 252.014C483.59 254.17 485.74 256.223 487.561 258.458L493.148 265.119L498.323 272.007C500.014 274.32 501.514 276.755 503.122 279.112C504.73 281.468 506.096 283.973 507.575 286.408C509.054 288.843 510.382 291.356 511.677 293.887L513.642 297.665L515.377 301.574L517.125 305.466C517.678 306.775 518.165 308.118 518.689 309.453C522.887 320.052 526.094 331.124 528.296 342.627C530.457 354.131 531.695 366.026 531.957 378.25C532.505 402.643 529.01 428.43 521.527 455.215C526.522 429.157 528.007 404.11 525.966 380.368C524.986 368.52 523.114 357.04 520.351 345.928C517.541 334.85 513.995 324.111 509.417 313.92C500.368 293.429 487.554 274.875 471.161 258.528C454.922 242.118 435.052 228.074 411.862 216.617C388.85 205.018 362.614 196.071 333.569 189.917C319.128 186.747 304.019 184.27 288.3 182.495L276.426 181.264C272.431 180.892 268.318 180.659 264.298 180.321C262.271 180.178 260.279 179.983 258.222 179.867L252.032 179.561L245.842 179.254C243.784 179.135 241.703 179.053 239.599 179.009C222.913 178.407 205.564 178.694 188.004 179.311C170.445 179.928 152.456 181.19 134.122 183.054C115.787 184.917 97.1697 187.337 78.273 190.324C68.8385 191.783 59.3199 193.529 49.7162 195.275C40.1126 197.021 30.4918 199.02 20.8176 201.202Z" fill="url(#paint0_linear)"/>
</g>
<defs>
<filter id="filter0_f" x="0.817566" y="-6.10352e-05" width="599" height="626.103" filterUnits="userSpaceOnUse" color-interpolation-filters="sRGB">
<feFlood flood-opacity="0" result="BackgroundImageFix"/>
<feBlend mode="normal" in="SourceGraphic" in2="BackgroundImageFix" result="shape"/>
<feGaussianBlur stdDeviation="10" result="effect1_foregroundBlur"/>
</filter>
<linearGradient id="paint0_linear" x1="80872.9" y1="71827.9" x2="154245" y2="33670.4" gradientUnits="userSpaceOnUse">
<stop stop-color="#229A86"/>
<stop offset="0.2" stop-color="#1D8A7D"/>
<stop offset="0.6" stop-color="#106067"/>
<stop offset="1" stop-color="#1F4D6E"/>
</linearGradient>
</defs>
</svg>
