<svg width="391" height="503" viewBox="0 0 391 503" fill="none" xmlns="http://www.w3.org/2000/svg">
<g filter="url(#filter0_f)">
<path d="M370.571 97.7188C364.445 99.1901 358.191 100.511 352.35 102.21L347.884 103.414L345.644 104.014L343.488 104.679L334.847 107.377C323.584 111.142 312.627 115.16 302.36 119.725C281.813 128.834 262.842 139.128 245.564 150.542C236.879 156.218 228.468 162.072 220.329 168.105C216.205 171.036 212.26 174.146 208.181 177.204L196.488 186.571C181.075 199.153 166.071 212.003 152.246 225.504C124.254 252.334 99.2876 280.811 77.4493 310.818C74.7059 314.562 72.1328 318.39 69.4543 322.168C68.1435 324.063 66.7757 325.946 65.5162 327.87L61.7213 333.644L57.9292 339.411L56.0303 342.302L54.2397 345.235L47.0336 356.958C37.6674 372.728 29.1263 388.817 20.9791 405.135C27.0323 387.997 34.3521 371.324 42.478 354.981C50.8452 338.751 60.14 322.912 70.3623 307.463L78.234 295.99C79.5263 294.061 80.9481 292.2 82.3565 290.334L86.568 284.729L90.8613 279.114L95.2835 273.608C98.2568 269.953 101.101 266.231 104.203 262.642L113.524 251.849C116.681 248.282 120.032 244.815 123.267 241.287L128.197 236.037L133.305 230.889L138.413 225.742L140.969 223.165L143.64 220.649L154.369 210.638C158.028 207.341 161.786 204.108 165.494 200.847C169.201 197.586 173.025 194.387 176.886 191.211C180.748 188.035 184.509 184.795 188.61 181.763L200.632 172.59C204.771 169.581 208.846 166.496 213.087 163.585C217.328 160.674 221.591 157.705 225.903 154.813C228.026 153.35 230.344 151.988 232.542 150.572C234.741 149.155 236.994 147.76 239.281 146.436C248.382 140.838 257.857 135.57 267.708 130.634L275.209 126.979L282.917 123.515C284.212 122.946 285.471 122.346 286.804 121.799L290.79 120.148C293.462 119.075 296.032 117.904 298.815 116.908L307.064 113.855C309.822 112.841 312.723 111.942 315.551 110.988L319.803 109.575L324.184 108.27C327.13 107.414 330.026 106.528 332.961 105.701C344.957 102.503 357.512 99.8387 370.571 97.7188Z" fill="url(#paint0_linear)"/>
</g>
<defs>
<filter id="filter0_f" x="0.817566" y="-1.52588e-05" width="389.754" height="502.791" filterUnits="userSpaceOnUse" color-interpolation-filters="sRGB">
<feFlood flood-opacity="0" result="BackgroundImageFix"/>
<feBlend mode="normal" in="SourceGraphic" in2="BackgroundImageFix" result="shape"/>
<feGaussianBlur stdDeviation="10" result="effect1_foregroundBlur"/>
</filter>
<linearGradient id="paint0_linear" x1="-60798.1" y1="-59589.6" x2="-181020" y2="124297" gradientUnits="userSpaceOnUse">
<stop stop-color="#229A86"/>
<stop offset="0.2" stop-color="#1D8A7D"/>
<stop offset="0.6" stop-color="#106067"/>
<stop offset="1" stop-color="#1F4D6E"/>
</linearGradient>
</defs>
</svg>
