<svg width="454" height="255" viewBox="0 0 454 255" fill="none" xmlns="http://www.w3.org/2000/svg">
<g filter="url(#filter0_f)">
<path d="M20.8176 20C24.4039 25.1799 27.8958 30.5338 31.5922 35.3655L34.3292 39.0944L35.6976 40.9661L37.0975 42.7363L42.7365 49.8169C50.3181 58.9578 58.0256 67.7215 65.9925 75.6437C81.9134 91.5083 98.3686 105.476 115.257 117.46C123.688 123.505 132.187 129.232 140.755 134.639C144.978 137.425 149.303 139.979 153.629 142.677L166.59 150.193C183.893 160.016 201.297 169.36 218.883 177.369C254.016 193.77 289.593 206.755 325.465 216.269C329.948 217.473 334.447 218.489 338.938 219.621C341.179 220.158 343.428 220.753 345.678 221.231L352.433 222.682L359.181 224.133L362.563 224.859L365.945 225.468L379.48 227.949C397.569 230.982 415.658 233.129 433.818 234.827C415.65 235.378 397.459 234.58 379.284 232.911C361.127 230.977 342.998 228.036 324.899 224.09L311.356 220.898C309.091 220.39 306.842 219.737 304.592 219.098L297.844 217.198L291.057 215.224L284.325 213.092C279.842 211.641 275.343 210.335 270.876 208.739L257.443 203.951C252.976 202.297 248.533 200.425 244.073 198.684L237.396 195.985L230.751 193.083L224.105 190.181L220.778 188.73L217.467 187.149L204.254 180.765C199.858 178.545 195.485 176.209 191.104 173.931C186.724 171.653 182.359 169.244 178.002 166.792C173.645 164.34 169.264 162.004 164.954 159.276L152.056 151.383C147.754 148.612 143.405 145.927 139.158 143.025C134.911 140.124 130.601 137.222 126.346 134.247C124.215 132.796 122.107 131.128 119.992 129.59C117.876 128.052 115.76 126.456 113.7 124.802C105.19 118.34 96.8537 111.409 88.6901 104.01L82.5713 98.3364L76.5548 92.4021C75.556 91.4009 74.5415 90.4433 73.5505 89.3986L70.5698 86.2791C68.6036 84.1752 66.5824 82.2019 64.6476 79.9675L58.8199 73.3802C56.8773 71.1747 54.9898 68.7952 53.0786 66.5027L50.2238 63.0495L47.4239 59.4366C45.56 56.9991 43.6882 54.6195 41.8557 52.1819C34.5376 42.1527 27.5149 31.4102 20.8176 20Z" fill="url(#paint0_linear)"/>
</g>
<defs>
<filter id="filter0_f" x="0.817566" y="0" width="453" height="255" filterUnits="userSpaceOnUse" color-interpolation-filters="sRGB">
<feFlood flood-opacity="0" result="BackgroundImageFix"/>
<feBlend mode="normal" in="SourceGraphic" in2="BackgroundImageFix" result="shape"/>
<feGaussianBlur stdDeviation="10" result="effect1_foregroundBlur"/>
</filter>
<linearGradient id="paint0_linear" x1="-33518.9" y1="78628.3" x2="181391" y2="124249" gradientUnits="userSpaceOnUse">
<stop stop-color="#229A86"/>
<stop offset="0.2" stop-color="#1D8A7D"/>
<stop offset="0.6" stop-color="#106067"/>
<stop offset="1" stop-color="#1F4D6E"/>
</linearGradient>
</defs>
</svg>
