<svg width="290" height="470" viewBox="0 0 290 470" fill="none" xmlns="http://www.w3.org/2000/svg">
<g filter="url(#filter0_f)">
<path d="M235.063 20C230.201 24.0074 225.159 27.9353 220.653 32.0232L217.167 35.0627L215.416 36.5831L213.769 38.1263L207.186 44.3383C198.712 52.6585 190.624 61.0726 183.397 69.6748C168.92 86.8679 156.38 104.435 145.852 122.267C140.533 131.175 135.538 140.124 130.867 149.113C128.445 153.555 126.262 158.079 123.935 162.616L117.531 176.161C109.191 194.225 101.337 212.35 94.8278 230.545C81.426 266.928 71.4655 303.467 64.9877 340.01C64.1629 344.578 63.5274 349.146 62.7756 353.715C62.4283 355.994 62.0238 358.285 61.735 360.567L60.8547 367.42L59.9738 374.266L59.534 377.697L59.2099 381.117L57.8707 394.813C56.3632 413.092 55.7377 431.297 55.5664 449.535C53.496 431.478 52.7683 413.284 52.9094 395.032C53.3171 376.777 54.7297 358.466 57.1471 340.1L59.1942 326.338C59.5106 324.038 59.9729 321.742 60.4208 319.447L61.7499 312.564L63.148 305.635L64.7098 298.748C65.7804 294.159 66.705 289.567 67.9214 284.982L71.5681 271.195C72.8424 266.605 74.3356 262.021 75.6973 257.431L77.8276 250.552L80.1629 243.686L82.4982 236.821L83.6655 233.384L84.9643 229.953L90.2199 216.252C92.064 211.685 94.0257 207.132 95.9289 202.576C97.8322 198.02 99.8669 193.469 101.946 188.922C104.024 184.375 105.985 179.814 108.343 175.291L115.128 161.777C117.53 157.258 119.84 152.7 122.377 148.225C124.913 143.75 127.444 139.212 130.051 134.723C131.319 132.478 132.805 130.238 134.161 128.001C135.516 125.764 136.929 123.522 138.405 121.33C144.132 112.309 150.34 103.422 157.03 94.6675L162.171 88.0953L167.581 81.6031C168.495 80.5239 169.365 79.4328 170.323 78.3578L173.182 75.1264C175.113 72.991 176.911 70.8117 178.975 68.6967L185.052 62.3379C187.087 60.2175 189.3 58.1373 191.424 56.041L194.626 52.907L197.992 49.8146C200.265 47.7531 202.48 45.6886 204.755 43.6585C214.136 35.5265 224.253 27.6291 235.063 20Z" fill="url(#paint0_linear)"/>
</g>
<defs>
<filter id="filter0_f" x="0.817596" y="0" width="288.821" height="469.55" filterUnits="userSpaceOnUse" color-interpolation-filters="sRGB">
<feFlood flood-opacity="0" result="BackgroundImageFix"/>
<feBlend mode="normal" in="SourceGraphic" in2="BackgroundImageFix" result="shape"/>
<feGaussianBlur stdDeviation="10" result="effect1_foregroundBlur"/>
</filter>
<linearGradient id="paint0_linear" x1="-80905.2" y1="-26820.9" x2="-108373" y2="191154" gradientUnits="userSpaceOnUse">
<stop stop-color="#229A86"/>
<stop offset="0.2" stop-color="#1D8A7D"/>
<stop offset="0.6" stop-color="#106067"/>
<stop offset="1" stop-color="#1F4D6E"/>
</linearGradient>
</defs>
</svg>
