<svg width="742" height="678" viewBox="0 0 742 678" fill="none" xmlns="http://www.w3.org/2000/svg">
<g filter="url(#filter0_f)">
<path d="M561.818 658C560.96 649.456 560.356 640.856 559.096 632.51L558.275 626.193L557.87 623.028L557.348 619.922L555.211 607.453C552.056 591.032 548.455 574.818 543.891 559.089C534.794 527.625 523.588 497.309 510.343 468.325C503.778 453.799 496.886 439.49 489.668 425.396C486.2 418.34 482.424 411.384 478.757 404.297L467.345 383.578C451.953 356.11 436.073 328.966 418.965 302.838C385.081 250.277 348.082 200.337 308.121 153.226C303.139 147.325 297.995 141.578 292.949 135.734C290.409 132.842 287.902 129.89 285.309 127.043L277.53 118.479L269.762 109.925L265.867 105.639L261.886 101.458L245.985 84.6876C224.525 62.5319 202.407 41.1786 179.864 20.1571C204.087 39.1481 227.339 59.3878 249.925 80.3998C272.29 101.633 293.87 123.748 314.666 146.744L330.05 164.167C332.642 167.057 335.106 170.062 337.581 173.054L345.015 182.017L352.448 191.088L359.69 200.244C364.489 206.369 369.417 212.379 374.088 218.618L388.143 237.371C392.772 243.663 397.207 250.127 401.761 256.49L408.51 266.1L415.068 275.86L421.626 285.621L424.91 290.505L428.077 295.491L440.659 315.454C444.774 322.184 448.773 328.993 452.825 335.758C456.877 342.523 460.811 349.389 464.703 356.286C468.594 363.184 472.603 370.001 476.228 377.098L487.278 398.092C490.861 405.22 494.57 412.319 497.984 419.506C501.398 426.693 504.894 433.948 508.264 441.209C509.981 444.811 511.506 448.585 513.138 452.249C514.77 455.913 516.358 459.63 517.832 463.34C524.192 478.328 529.977 493.555 535.187 509.021L538.998 520.729L542.481 532.564C543.047 534.543 543.666 536.5 544.19 538.51L545.783 544.536C546.799 548.553 547.984 552.51 548.862 556.612L551.613 568.836C552.523 572.919 553.231 577.102 554.035 581.23L555.215 587.424L556.205 593.703C556.839 597.912 557.527 602.078 558.12 606.254C560.271 623.197 561.505 640.47 561.818 658Z" fill="url(#paint0_linear)"/>
</g>
<defs>
<filter id="filter0_f" x="0.459625" y="6.10352e-05" width="740.89" height="678" filterUnits="userSpaceOnUse" color-interpolation-filters="sRGB">
<feFlood flood-opacity="0" result="BackgroundImageFix"/>
<feBlend mode="normal" in="SourceGraphic" in2="BackgroundImageFix" result="shape"/>
<feGaussianBlur stdDeviation="10" result="effect1_foregroundBlur"/>
</filter>
<linearGradient id="paint0_linear" x1="102854" y1="-34624.4" x2="-98610.5" y2="-337412" gradientUnits="userSpaceOnUse">
<stop stop-color="#229A86"/>
<stop offset="0.2" stop-color="#1D8A7D"/>
<stop offset="0.6" stop-color="#106067"/>
<stop offset="1" stop-color="#1F4D6E"/>
</linearGradient>
</defs>
</svg>
