<svg width="300" height="742" viewBox="0 0 300 742" fill="none" xmlns="http://www.w3.org/2000/svg">
<g filter="url(#filter0_f)">
<path d="M27.5298 721.95C33.5396 715.817 39.7549 709.843 45.355 703.527L49.6788 698.85L51.8493 696.511L53.9002 694.12L62.1033 684.489C72.6885 671.544 82.8297 658.391 91.9808 644.808C110.307 617.663 126.402 589.634 140.167 560.894C147.112 546.546 153.682 532.086 159.877 517.514C163.072 510.329 165.993 502.974 169.085 495.617L177.679 473.579C188.905 444.162 199.568 414.577 208.665 384.701C227.307 325.008 241.94 264.603 252.503 203.736C253.841 196.129 254.958 188.498 256.21 180.879C256.803 177.077 257.463 173.26 257.988 169.445L259.578 157.986L261.168 146.54L261.963 140.804L262.621 135.069L265.308 112.115C268.567 81.4424 270.788 50.7796 272.482 20.002C273.423 50.7676 272.784 81.5884 271.124 112.392C269.153 143.168 266.003 173.906 261.674 204.607L258.154 227.582C257.596 231.424 256.868 235.241 256.157 239.058L254.04 250.509L251.838 262.028L249.449 273.455C247.822 281.064 246.366 288.698 244.569 296.283L239.178 319.089C237.313 326.674 235.192 334.221 233.225 341.794L230.172 353.134L226.88 364.423L223.589 375.712L221.943 381.363L220.144 386.989L212.88 409.441C210.351 416.912 207.686 424.345 205.088 431.79C202.491 439.236 199.74 446.656 196.938 454.064C194.137 461.471 191.471 468.917 188.346 476.248L179.309 498.183C176.132 505.501 173.058 512.898 169.728 520.124C166.397 527.35 163.068 534.682 159.653 541.923C157.988 545.549 156.067 549.138 154.3 552.738C152.532 556.339 150.697 559.94 148.793 563.449C141.362 577.935 133.378 592.134 124.842 606.044L118.295 616.472L111.441 626.729C110.285 628.432 109.179 630.161 107.972 631.852L104.366 636.935C101.933 640.289 99.6541 643.735 97.0679 647.037L89.4458 656.982C86.8937 660.297 84.1368 663.521 81.4823 666.784L77.4833 671.658L73.2965 676.441C70.4712 679.626 67.714 682.823 64.8882 685.954C53.2582 698.462 40.7877 710.478 27.5298 721.95Z" fill="url(#paint0_linear)"/>
</g>
<defs>
<filter id="filter0_f" x="0.817604" y="0" width="298.579" height="741.95" filterUnits="userSpaceOnUse" color-interpolation-filters="sRGB">
<feFlood flood-opacity="0" result="BackgroundImageFix"/>
<feBlend mode="normal" in="SourceGraphic" in2="BackgroundImageFix" result="shape"/>
<feGaussianBlur stdDeviation="10" result="effect1_foregroundBlur"/>
</filter>
<linearGradient id="paint0_linear" x1="92660.3" y1="56647.4" x2="196030" y2="-292040" gradientUnits="userSpaceOnUse">
<stop stop-color="#229A86"/>
<stop offset="0.2" stop-color="#1D8A7D"/>
<stop offset="0.6" stop-color="#106067"/>
<stop offset="1" stop-color="#1F4D6E"/>
</linearGradient>
</defs>
</svg>
