<svg width="782" height="471" viewBox="0 0 782 471" fill="none" xmlns="http://www.w3.org/2000/svg">
<g filter="url(#filter0_f)">
<path d="M694.058 450.451C689.828 442.979 685.807 435.352 681.289 428.223L677.991 422.773L676.344 420.04L674.614 417.408L667.63 406.859C658.122 393.105 648.29 379.719 637.77 367.165C616.759 342.041 594.281 318.817 570.473 297.634C558.608 286.989 546.532 276.673 534.244 266.686C528.224 261.627 521.965 256.784 515.751 251.777L496.954 237.419C471.794 218.489 446.317 200.053 420.126 183.041C367.925 148.604 313.931 117.823 258.366 90.8242C251.427 87.433 244.403 84.2476 237.429 80.9347C233.939 79.3128 230.454 77.6218 226.933 76.0619L216.362 71.3621L205.803 66.6659L200.511 64.3142L195.183 62.0936L173.87 53.1583C145.297 41.5368 116.448 30.9143 87.3416 20.7675C117.166 28.3792 146.605 37.5248 175.746 47.646C204.774 58.0591 233.439 69.5948 261.742 82.2529L282.845 91.9943C286.382 93.5941 289.849 95.3506 293.32 97.0907L303.737 102.295L314.196 107.598L324.515 113.057C331.377 116.727 338.31 120.24 345.1 124.066L365.523 135.559C372.296 139.451 378.961 143.578 385.693 147.564L395.745 153.637L405.682 159.925L415.619 166.212L420.594 169.358L425.502 172.644L445.065 185.839C451.545 190.337 457.949 194.956 464.385 199.513C470.82 204.07 477.189 208.767 483.532 213.51C489.874 218.252 496.292 222.875 502.471 227.907L521.048 242.663C527.2 247.741 533.457 252.742 539.479 257.943C545.501 263.143 551.625 268.372 557.637 273.658C560.661 276.262 563.578 279.101 566.548 281.796C569.519 284.491 572.472 287.252 575.316 290.053C587.179 301.203 598.613 312.805 609.617 324.858L617.825 334.035L625.785 343.461C627.101 345.044 628.457 346.585 629.746 348.213L633.633 353.085C636.183 356.351 638.863 359.495 641.32 362.894L648.767 372.971C651.246 376.341 653.581 379.883 655.981 383.337L659.558 388.529L662.995 393.876C665.274 397.472 667.583 401.007 669.809 404.589C678.609 419.227 686.703 434.536 694.058 450.451Z" fill="url(#paint0_linear)"/>
</g>
<defs>
<filter id="filter0_f" x="0" y="0.572021" width="781.453" height="469.879" filterUnits="userSpaceOnUse" color-interpolation-filters="sRGB">
<feFlood flood-opacity="0" result="BackgroundImageFix"/>
<feBlend mode="normal" in="SourceGraphic" in2="BackgroundImageFix" result="shape"/>
<feGaussianBlur stdDeviation="10" result="effect1_foregroundBlur"/>
</filter>
<linearGradient id="paint0_linear" x1="80075.6" y1="-73082.3" x2="-226374" y2="-268931" gradientUnits="userSpaceOnUse">
<stop stop-color="#229A86"/>
<stop offset="0.2" stop-color="#1D8A7D"/>
<stop offset="0.6" stop-color="#106067"/>
<stop offset="1" stop-color="#1F4D6E"/>
</linearGradient>
</defs>
</svg>
