<svg width="757" height="653" viewBox="0 0 757 653" fill="none" xmlns="http://www.w3.org/2000/svg">
<g filter="url(#filter0_f)">
<path d="M20.8176 427.705C29.2906 429.096 37.7526 430.745 46.1395 431.696L52.4527 432.544L55.6143 432.975L58.7498 433.278L71.3461 434.452C88.023 435.67 104.615 436.405 120.991 436.082C153.737 435.468 185.923 432.521 217.352 427.258C233.085 424.691 248.693 421.752 264.178 418.442C271.893 416.925 279.591 415.086 287.387 413.385L310.359 407.746C340.882 400.017 371.219 391.731 400.893 381.996C460.451 362.926 518.286 340.167 574.159 313.812C581.152 310.533 588.038 307.059 594.992 303.704C598.444 302.002 601.946 300.348 605.369 298.583L615.659 293.295L625.938 288.015L631.088 285.367L636.159 282.609L656.484 271.609C683.453 256.64 709.818 240.827 735.973 224.516C711.342 242.976 685.758 260.174 659.601 276.528C633.288 292.61 606.327 307.706 578.72 321.817L557.899 332.147C554.434 333.9 550.892 335.499 547.36 337.111L536.774 341.963L526.085 346.785L515.362 351.4C508.2 354.444 501.117 357.642 493.878 360.532L472.119 369.235C464.841 372.07 457.446 374.675 450.12 377.419L439.086 381.442L427.957 385.239L416.828 389.037L411.259 390.94L405.621 392.703L383.076 399.669C375.508 401.895 367.895 403.988 360.309 406.144C352.724 408.3 345.072 410.316 337.4 412.282C329.729 414.249 322.104 416.35 314.309 418.008L291.166 423.226C283.352 424.835 275.533 426.573 267.706 428.002C259.879 429.432 251.965 430.924 244.078 432.293C240.154 433.016 236.113 433.508 232.151 434.132C228.189 434.756 224.187 435.325 220.221 435.785C204.097 438.034 187.889 439.666 171.6 440.68L159.305 441.319L146.971 441.609C144.913 441.642 142.863 441.732 140.785 441.716L134.553 441.688C130.41 441.626 126.28 441.743 122.092 441.526L109.572 441.008C105.393 440.826 101.17 440.424 96.9741 440.128L90.6867 439.659L84.3661 438.983C80.1362 438.503 75.935 438.085 71.7484 437.574C54.8278 435.25 37.8267 431.956 20.8176 427.705Z" fill="url(#paint0_linear)"/>
</g>
<defs>
<filter id="filter0_f" x="0.817566" y="0" width="755.273" height="652.386" filterUnits="userSpaceOnUse" color-interpolation-filters="sRGB">
<feFlood flood-opacity="0" result="BackgroundImageFix"/>
<feBlend mode="normal" in="SourceGraphic" in2="BackgroundImageFix" result="shape"/>
<feGaussianBlur stdDeviation="10" result="effect1_foregroundBlur"/>
</filter>
<linearGradient id="paint0_linear" x1="7525.49" y1="108373" x2="352247" y2="-7538.89" gradientUnits="userSpaceOnUse">
<stop stop-color="#229A86"/>
<stop offset="0.2" stop-color="#1D8A7D"/>
<stop offset="0.6" stop-color="#106067"/>
<stop offset="1" stop-color="#1F4D6E"/>
</linearGradient>
</defs>
</svg>
