<svg width="482" height="431" viewBox="0 0 482 431" fill="none" xmlns="http://www.w3.org/2000/svg">
<g filter="url(#filter0_f)">
<path d="M135.41 20C135.48 26.8502 135.383 33.844 135.726 40.3753L135.899 45.3692L135.981 47.8738L136.143 50.2851L136.82 59.946C137.932 72.5398 139.345 84.7908 141.411 96.2685C145.523 119.24 151.067 140.447 158.01 159.76C161.443 169.468 165.099 178.869 168.98 187.965C170.829 192.575 172.882 196.983 174.858 201.543L181.083 214.611C189.505 231.836 198.263 248.603 207.875 264.05C226.866 295.329 248.027 323.222 271.272 347.614C274.168 350.678 277.178 353.552 280.119 356.543C281.603 358.007 283.061 359.535 284.581 360.942L289.14 365.18L293.694 369.415L295.976 371.535L298.321 373.535L307.682 381.582C320.344 392.04 333.478 401.575 346.907 410.669C332.273 403.918 318.34 395.749 304.882 386.679C291.581 377.339 278.839 366.961 266.656 355.544L257.668 346.753C256.15 345.31 254.723 343.721 253.288 342.148L248.974 337.444L244.669 332.649L240.492 327.708C237.726 324.387 234.871 321.211 232.196 317.744L224.145 307.332C221.5 303.805 218.99 300.06 216.399 296.445L212.566 290.937L208.867 285.23L205.168 279.522L203.316 276.667L201.545 273.682L194.518 261.693C192.231 257.604 190.025 253.404 187.781 249.261C185.538 245.118 183.376 240.845 181.244 236.53C179.111 232.214 176.899 228.011 174.951 223.427L168.977 209.991C167.058 205.365 165.056 200.811 163.25 196.071C161.444 191.33 159.589 186.565 157.816 181.746C156.907 179.373 156.132 176.782 155.282 174.324C154.432 171.867 153.613 169.348 152.868 166.792C149.595 156.619 146.708 146.027 144.209 135.015L142.403 126.629L140.816 118.011C140.562 116.564 140.271 115.156 140.046 113.666L139.356 109.21C138.925 106.222 138.381 103.348 138.045 100.237L136.956 91.0146C136.598 87.9304 136.377 84.6867 136.09 81.5244L135.677 76.7704L135.393 71.8722C135.22 68.5775 135.011 65.3402 134.864 62.0582C134.433 48.644 134.615 34.6046 135.41 20Z" fill="url(#paint0_linear)"/>
</g>
<defs>
<filter id="filter0_f" x="0.817585" y="0" width="480.59" height="430.85" filterUnits="userSpaceOnUse" color-interpolation-filters="sRGB">
<feFlood flood-opacity="0" result="BackgroundImageFix"/>
<feBlend mode="normal" in="SourceGraphic" in2="BackgroundImageFix" result="shape"/>
<feGaussianBlur stdDeviation="10" result="effect1_foregroundBlur"/>
</filter>
<linearGradient id="paint0_linear" x1="-68236.3" y1="68504" x2="90405.9" y2="184554" gradientUnits="userSpaceOnUse">
<stop stop-color="#229A86"/>
<stop offset="0.2" stop-color="#1D8A7D"/>
<stop offset="0.6" stop-color="#106067"/>
<stop offset="1" stop-color="#1F4D6E"/>
</linearGradient>
</defs>
</svg>
