<svg width="1337" height="478" viewBox="0 0 1337 478" fill="none" xmlns="http://www.w3.org/2000/svg">
<g filter="url(#filter0_f)">
<path d="M-97 20C-84.7214 30.5525 -72.766 41.4596 -60.1105 51.3027L-50.74 58.8992L-46.0547 62.7124L-41.2618 66.3185L-21.9554 80.7432C4.00193 99.3652 30.3901 117.219 57.6668 133.358C112.175 165.677 168.514 194.132 226.335 218.546C255.201 230.862 284.3 242.528 313.632 253.544C328.091 259.219 342.901 264.421 357.711 269.919L402.086 285.231C461.324 305.242 520.913 324.278 581.121 340.594C701.41 374.006 823.214 400.458 946.031 419.841C961.379 422.295 976.781 424.364 992.157 426.669C999.831 427.763 1007.53 428.975 1015.23 429.95L1038.36 432.906L1061.47 435.862L1073.04 437.34L1084.62 438.582L1130.96 443.636C1192.89 449.814 1254.83 454.189 1317 457.647C1254.8 458.77 1192.52 457.144 1130.29 453.745C1068.13 449.804 1006.06 443.813 944.093 435.773L897.725 429.271C889.97 428.236 882.269 426.906 874.568 425.605L851.465 421.733L828.227 417.713L805.178 413.368C789.83 410.412 774.428 407.752 759.133 404.5L713.143 394.746C697.848 391.376 682.635 387.563 667.367 384.016L644.507 378.518L621.753 372.606L599 366.695L587.61 363.739L576.274 360.517L531.038 347.511C515.986 342.989 501.014 338.23 486.016 333.589C471.018 328.948 456.074 324.041 441.156 319.046C426.239 314.05 411.241 309.292 396.485 303.734L352.325 287.655C337.596 282.009 322.706 276.54 308.166 270.629C293.625 264.717 278.869 258.805 264.302 252.746C257.005 249.79 249.789 246.391 242.545 243.257C235.302 240.124 228.059 236.873 221.004 233.503C191.869 220.339 163.327 206.22 135.377 191.145L114.428 179.588L93.8293 167.498C90.4096 165.459 86.9361 163.508 83.5433 161.38L73.3381 155.024C66.6064 150.738 59.6863 146.718 53.0623 142.166L33.1096 128.747C26.4588 124.254 19.9964 119.406 13.4532 114.736L3.67881 107.701L-5.90709 100.341C-12.2887 95.3748 -18.6973 90.5272 -24.9712 85.5613C-50.0262 65.1298 -74.07 43.2449 -97 20Z" fill="url(#paint0_linear)"/>
</g>
<defs>
<filter id="filter0_f" x="-117" y="0" width="1454" height="478" filterUnits="userSpaceOnUse" color-interpolation-filters="sRGB">
<feFlood flood-opacity="0" result="BackgroundImageFix"/>
<feBlend mode="normal" in="SourceGraphic" in2="BackgroundImageFix" result="shape"/>
<feGaussianBlur stdDeviation="10" result="effect1_foregroundBlur"/>
</filter>
<linearGradient id="paint0_linear" x1="-114928" y1="160162" x2="567204" y2="403513" gradientUnits="userSpaceOnUse">
<stop stop-color="#229A86"/>
<stop offset="0.2" stop-color="#1D8A7D"/>
<stop offset="0.6" stop-color="#106067"/>
<stop offset="1" stop-color="#1F4D6E"/>
</linearGradient>
</defs>
</svg>
