<svg width="1095" height="337" viewBox="0 0 1095 337" fill="none" xmlns="http://www.w3.org/2000/svg">
<g filter="url(#filter0_f)">
<path d="M-97 317C-89.0239 305.888 -80.4916 295.271 -71.4427 285.199C-62.3116 275.126 -52.7209 265.569 -42.7076 256.564C-22.4959 238.735 -1.08794 222.606 21.3338 208.316C43.7671 194.058 66.9006 181.249 90.3573 169.268C102.045 163.175 113.976 157.791 125.879 152.288L161.643 135.782L197.865 120.813L216.07 113.418C222.13 110.992 228.324 108.951 234.464 106.703L271.359 93.5391C277.472 91.2318 283.747 89.4273 289.941 87.6228L308.631 81.7064C358.345 65.8802 409.083 54.4912 459.928 43.9305L498.305 37.6L517.506 34.4347C523.889 33.3994 530.352 32.8077 536.762 31.9499L575.327 27.2464C581.763 26.3589 588.226 25.9448 594.663 25.4123L614.026 23.9332C665.625 19.703 717.386 19.348 769.066 20.7088C872.296 24.6935 974.849 40.7081 1075 68.4834C973.883 48.8254 871.477 38.2396 768.797 36.8308L730.394 37.3633L711.192 37.5408C708.014 37.5408 704.81 37.5408 701.605 37.8662L692.018 38.3395L653.668 40.2623C650.49 40.4694 647.286 40.5286 644.081 40.7948L634.52 41.6822L615.4 43.4572C564.366 47.3915 513.655 55.2899 463.187 64.3123L425.484 72.1219L406.632 76.0267L401.919 77.0029L397.233 78.1862L387.888 80.5527L350.509 89.9597C347.385 90.7584 344.261 91.498 341.164 92.3558L331.899 95.107L313.371 100.52C263.711 114.217 215.235 132.439 166.841 150.809L131.023 166.014C119.092 171.132 107.108 176.131 95.3126 181.574C71.6943 192.401 48.4261 204.145 25.7774 217.073C3.09988 230.036 -18.7146 244.746 -39.5028 261.09C-49.7634 269.432 -59.9163 278.011 -69.4498 287.448C-79.1123 296.745 -88.3092 306.61 -97 317Z" fill="url(#paint0_linear)"/>
</g>
<defs>
<filter id="filter0_f" x="-117" y="-0.000244141" width="1212" height="337" filterUnits="userSpaceOnUse" color-interpolation-filters="sRGB">
<feFlood flood-opacity="0" result="BackgroundImageFix"/>
<feBlend mode="normal" in="SourceGraphic" in2="BackgroundImageFix" result="shape"/>
<feGaussianBlur stdDeviation="10" result="effect1_foregroundBlur"/>
</filter>
<linearGradient id="paint0_linear" x1="-30768.2" y1="52710.8" x2="483341" y2="52710.8" gradientUnits="userSpaceOnUse">
<stop stop-color="#229A86"/>
<stop offset="0.2" stop-color="#1D8A7D"/>
<stop offset="0.6" stop-color="#106067"/>
<stop offset="1" stop-color="#1F4D6E"/>
</linearGradient>
</defs>
</svg>
