<svg width="976" height="1216" viewBox="0 0 976 1216" fill="none" xmlns="http://www.w3.org/2000/svg">
<g filter="url(#filter0_f)">
<path d="M20 -22.6992C51.4256 -23.7625 83.0186 -22.9439 114.628 -20.2474C146.343 -17.6964 177.965 -13.3961 209.546 -7.77331C272.813 3.67158 335.393 21.1424 396.501 44.4203C457.787 67.7474 517.168 97.3249 573.756 132.711C588.093 141.231 601.736 151.045 615.646 160.321C622.541 165.107 629.231 170.199 636.024 175.138C642.817 180.077 649.643 184.965 656.091 190.351L675.887 206.037C679.227 208.603 682.43 211.373 685.702 214.274L695.373 222.586L705.02 230.91C708.247 233.668 711.47 236.361 714.523 239.309L733.175 256.592C782.403 303.291 827.253 354.927 866.995 410.662C871.833 417.685 876.957 424.559 881.617 431.708L895.791 453.12L909.381 474.869C913.863 482.144 918.086 489.62 922.448 496.957C926.811 504.294 930.842 511.87 935.027 519.332C939.212 526.795 943.181 534.37 947.103 541.969L953.015 553.337L958.605 564.904L964.206 576.433C966.028 580.288 967.755 584.193 969.543 588.099C983.805 619.138 996.62 650.801 1007.94 682.965C1019.18 715.106 1029.05 747.696 1037.41 780.538C1054.13 846.083 1064.6 912.746 1068.68 979.502C1060.68 913.084 1047.13 847.1 1028.19 782.33C1018.81 750.032 1008.09 718.141 996.032 686.656C983.915 655.235 970.715 624.245 956.047 594.051C926.827 533.443 892.205 475.58 852.687 421.305C813.4 366.961 769.225 316.597 720.856 271.003C672.708 225.144 620.576 184.29 565.286 149.089C537.725 131.292 509.43 114.915 480.511 100.022L458.738 89.0656C451.439 85.4904 444.021 82.2109 436.701 78.7131C433.026 77.0222 429.382 75.2153 425.673 73.5755L414.538 68.76L403.403 63.9444C399.69 62.2959 395.96 60.7335 392.214 59.2573C362.345 46.8745 331.877 36.4374 301.252 26.7493C270.626 17.0612 239.659 8.81842 208.468 1.95891C177.278 -4.9006 145.947 -10.4529 114.489 -14.6717C98.7617 -16.8654 83.0717 -18.3448 67.2314 -19.8793C51.3911 -21.4139 35.6837 -22.2839 20 -22.6992Z" fill="url(#paint0_linear)"/>
</g>
<defs>
<filter id="filter0_f" x="0" y="-302" width="1172.09" height="1517.42" filterUnits="userSpaceOnUse" color-interpolation-filters="sRGB">
<feFlood flood-opacity="0" result="BackgroundImageFix"/>
<feBlend mode="normal" in="SourceGraphic" in2="BackgroundImageFix" result="shape"/>
<feGaussianBlur stdDeviation="10" result="effect1_foregroundBlur"/>
</filter>
<linearGradient id="paint0_linear" x1="189121" y1="243617" x2="294117" y2="189013" gradientUnits="userSpaceOnUse">
<stop stop-color="#229A86"/>
<stop offset="0.2" stop-color="#1D8A7D"/>
<stop offset="0.6" stop-color="#106067"/>
<stop offset="1" stop-color="#1F4D6E"/>
</linearGradient>
</defs>
</svg>
