<svg width="407" height="654" viewBox="0 0 407 654" fill="none" xmlns="http://www.w3.org/2000/svg">
<g filter="url(#filter0_f)">
<path d="M582.975 326.222C582.971 406.615 553.931 483.719 502.235 540.599C463.308 584.553 413.351 614.769 358.734 627.391C304.117 640.014 247.317 634.472 195.579 611.471C143.84 588.471 99.5079 549.055 68.2369 498.251C36.966 447.447 20.1737 387.557 20.0017 326.222C20.2048 264.53 37.3244 204.338 69.1265 153.502C100.929 102.665 145.936 63.5435 198.276 41.2434C249.697 19.2376 305.844 14.196 359.834 26.7364C413.824 39.2768 463.313 68.8545 502.235 111.845C553.924 168.73 582.962 245.83 582.975 326.222ZM582.975 326.222C582.784 266.612 566.245 208.45 535.518 159.327C504.791 110.205 461.303 72.4029 410.729 50.8561C360.989 29.5825 306.681 24.7211 254.463 36.8677C202.245 49.0144 154.387 77.6413 116.755 119.239C66.8592 174.19 38.8369 248.65 38.8369 326.281C38.8369 403.911 66.8592 478.372 116.755 533.323C154.363 575.85 202.648 605.098 255.448 617.334C308.248 629.571 363.168 624.24 413.199 602.023C463.23 579.806 506.103 541.711 536.347 492.598C566.591 443.485 582.833 385.583 583.002 326.281L582.975 326.222Z" fill="url(#paint0_linear)"/>
</g>
<defs>
<filter id="filter0_f" x="0.00170898" y="-0.000244141" width="603" height="654" filterUnits="userSpaceOnUse" color-interpolation-filters="sRGB">
<feFlood flood-opacity="0" result="BackgroundImageFix"/>
<feBlend mode="normal" in="SourceGraphic" in2="BackgroundImageFix" result="shape"/>
<feGaussianBlur stdDeviation="10" result="effect1_foregroundBlur"/>
</filter>
<linearGradient id="paint0_linear" x1="20.0555" y1="326.192" x2="592.394" y2="326.192" gradientUnits="userSpaceOnUse">
<stop stop-color="#229A86"/>
<stop offset="0.2" stop-color="#1D8A7D"/>
<stop offset="0.6" stop-color="#106067"/>
<stop offset="1" stop-color="#1F4D6E"/>
</linearGradient>
</defs>
</svg>
