<svg width="1184" height="1447" viewBox="0 0 1184 1447" fill="none" xmlns="http://www.w3.org/2000/svg">
<g filter="url(#filter0_f)">
<path d="M-621 607.704C-581.933 589.184 -541.944 572.853 -501.223 558.79C-460.425 544.492 -419.082 532.366 -377.29 521.866C-293.497 501.049 -208.286 487.913 -122.726 482.623C-36.9243 477.295 48.8505 480.589 133.317 492.454C154.548 494.92 175.399 499.336 196.38 502.952C206.851 504.973 217.181 507.478 227.582 509.74C237.983 512.003 248.407 514.184 258.543 517.177L289.344 525.337C294.51 526.616 299.582 528.217 304.789 529.94L320.081 534.713L335.348 539.513C340.445 541.087 345.513 542.583 350.463 544.483L380.43 555.206C459.935 584.819 535.809 622.819 606.82 668.587C615.554 674.447 624.592 679.97 633.151 686.08L659.058 704.263L684.358 723.175C692.741 729.536 700.874 736.283 709.13 742.784C717.387 749.286 725.317 756.259 733.398 763.01C741.478 769.761 749.331 776.766 757.133 783.827L768.861 794.365L780.26 805.322L791.659 816.226C795.407 819.9 799.054 823.686 802.778 827.44C832.439 857.244 860.518 888.598 886.909 921.38C913.198 954.174 937.928 988.267 960.856 1023.49C1006.66 1093.78 1045.05 1168.84 1075.44 1247.52C1040.25 1171.4 998.257 1098.85 949.957 1030.72C925.948 996.714 900.413 963.935 873.351 932.383C846.24 900.939 817.932 870.611 788.08 842.055C728.44 784.61 663.055 733.454 592.878 689.334C522.965 645.002 448.42 608.174 370.413 579.429C292.583 550.24 211.644 529.304 128.879 516.951C87.5265 510.49 45.791 506.153 3.83277 503.957L-27.6607 502.615C-38.1809 502.283 -48.7395 502.375 -59.2562 502.149C-64.512 502.114 -69.773 501.922 -75.0523 501.968L-90.8597 502.236L-106.667 502.504C-111.955 502.543 -117.231 502.694 -122.495 502.958C-164.696 504.326 -206.913 508.381 -249.044 513.429C-291.175 518.478 -333.189 525.466 -374.959 534.254C-416.729 543.041 -458.181 553.49 -499.288 565.625C-519.871 571.589 -540.137 578.399 -560.612 585.224C-581.088 592.049 -601.145 599.608 -621 607.704Z" fill="url(#paint0_linear)"/>
</g>
<defs>
<filter id="filter0_f" x="-641" y="0" width="1824.78" height="1756.91" filterUnits="userSpaceOnUse" color-interpolation-filters="sRGB">
<feFlood flood-opacity="0" result="BackgroundImageFix"/>
<feBlend mode="normal" in="SourceGraphic" in2="BackgroundImageFix" result="shape"/>
<feGaussianBlur stdDeviation="10" result="effect1_foregroundBlur"/>
</filter>
<linearGradient id="paint0_linear" x1="329102" y1="192250" x2="440304" y2="68491.8" gradientUnits="userSpaceOnUse">
<stop stop-color="#229A86"/>
<stop offset="0.2" stop-color="#1D8A7D"/>
<stop offset="0.6" stop-color="#106067"/>
<stop offset="1" stop-color="#1F4D6E"/>
</linearGradient>
</defs>
</svg>
