<svg width="449" height="1479" viewBox="0 0 449 1479" fill="none" xmlns="http://www.w3.org/2000/svg">
<g filter="url(#filter0_f)">
<path d="M545.236 47.285C533.939 58.8824 522.308 70.1351 511.696 82.1529L503.531 91.032L499.433 95.4706L495.535 100.03L479.936 118.4C459.733 143.147 440.27 168.371 422.464 194.59C386.811 246.979 354.902 301.435 326.933 357.624C312.843 385.666 299.387 413.982 286.566 442.571C280.001 456.649 273.886 471.105 267.476 485.544L249.43 528.879C225.767 586.756 203.056 645.043 183.021 704.118C142.18 822.091 108.192 942.011 81.1957 1063.38C77.791 1078.55 74.7665 1093.79 71.5076 1108.99C69.938 1116.58 68.2486 1124.19 66.7953 1131.82L62.4043 1154.72L58.015 1177.59L55.8186 1189.06L53.8583 1200.54L45.9268 1246.47C35.903 1307.9 27.6788 1369.44 20.354 1431.28C23.1077 1369.13 28.6102 1307.07 35.8793 1245.17C43.6853 1183.37 53.5307 1121.8 65.4154 1060.45L74.7941 1014.58C76.3097 1006.91 78.1169 999.304 79.8948 991.699L85.1987 968.882L90.6584 945.94L96.431 923.206C100.337 908.072 103.952 892.865 108.15 877.803L120.75 832.509C125.066 817.455 129.819 802.508 134.311 787.491L141.222 765.018L148.54 742.677L155.857 720.336L159.517 709.153L163.439 698.039L179.238 653.7C184.689 638.959 190.371 624.314 195.937 609.634C201.503 594.954 207.332 580.344 213.247 565.767C219.162 551.19 224.846 536.517 231.311 522.136L250.111 479.064C256.663 464.715 263.048 450.195 269.854 436.051C276.66 421.907 283.48 407.548 290.435 393.386C293.84 386.288 297.682 379.297 301.26 372.263C304.839 365.229 308.535 358.202 312.338 351.371C327.291 323.113 343.161 295.506 359.947 268.549L372.787 248.361L386.137 228.555C388.385 225.269 390.549 221.924 392.884 218.67L399.863 208.881C404.56 202.429 409.003 195.773 413.959 189.446L428.596 170.368C433.494 164.01 438.735 157.862 443.804 151.622L451.434 142.305L459.377 133.196C464.731 127.136 469.968 121.042 475.315 115.09C497.268 91.3563 520.608 68.7225 545.236 47.285Z" fill="url(#paint0_linear)"/>
</g>
<defs>
<filter id="filter0_f" x="0.00164795" y="-0.00012207" width="565.234" height="1478.54" filterUnits="userSpaceOnUse" color-interpolation-filters="sRGB">
<feFlood flood-opacity="0" result="BackgroundImageFix"/>
<feBlend mode="normal" in="SourceGraphic" in2="BackgroundImageFix" result="shape"/>
<feGaussianBlur stdDeviation="10" result="effect1_foregroundBlur"/>
</filter>
<linearGradient id="paint0_linear" x1="-152132" y1="-124537" x2="-437504" y2="541111" gradientUnits="userSpaceOnUse">
<stop stop-color="#229A86"/>
<stop offset="0.2" stop-color="#1D8A7D"/>
<stop offset="0.6" stop-color="#106067"/>
<stop offset="1" stop-color="#1F4D6E"/>
</linearGradient>
</defs>
</svg>
