<svg width="1218" height="770" viewBox="0 0 1218 770" fill="none" xmlns="http://www.w3.org/2000/svg">
<g filter="url(#filter0_f)">
<path d="M1401.53 749.234C1391.78 736.307 1382.42 723.103 1372.16 710.79L1364.62 701.371L1360.85 696.647L1356.94 692.102L1341.15 673.895C1319.76 650.17 1297.78 627.104 1274.57 605.523C1228.2 562.331 1179.22 522.526 1127.92 486.352C1102.35 468.168 1076.4 450.569 1050.09 433.557C1037.17 424.931 1023.81 416.692 1010.51 408.165L970.418 383.75C916.804 351.576 862.64 320.28 807.291 291.509C696.884 233.234 583.513 181.435 467.647 136.328C453.174 130.66 438.567 125.357 424.036 119.828C416.771 117.124 409.505 114.299 402.189 111.705L380.22 103.889L358.277 96.0782L347.279 92.167L336.231 88.487L292.032 73.6744C232.839 54.4422 173.262 36.9717 113.253 20.3449C174.265 32.5011 234.769 47.3603 294.843 63.9408C354.741 81.0374 414.105 100.115 472.936 121.175L516.853 137.408C524.21 140.071 531.45 143.012 538.697 145.923L560.445 154.629L582.292 163.509L603.886 172.665C618.252 178.824 632.734 184.705 646.984 191.14L689.84 210.47C704.065 217.021 718.117 223.989 732.278 230.707L753.442 240.95L774.413 251.574L795.384 262.199L805.883 267.514L816.272 273.077L857.699 295.423C871.441 303.049 885.055 310.889 898.72 318.619C912.384 326.349 925.94 334.327 939.45 342.386C952.961 350.445 966.6 358.291 979.833 366.864L1019.55 391.985C1032.74 400.639 1046.12 409.155 1059.07 418.029C1072.02 426.903 1085.17 435.823 1098.12 444.848C1104.62 449.291 1110.94 454.149 1117.35 458.754C1123.76 463.359 1130.14 468.079 1136.32 472.874C1161.98 491.944 1186.86 511.82 1210.95 532.505L1228.96 548.26L1246.51 564.461C1249.42 567.183 1252.39 569.829 1255.26 572.631L1263.87 581.015C1269.54 586.637 1275.44 592.039 1280.94 597.898L1297.58 615.261C1303.12 621.068 1308.4 627.181 1313.8 633.139L1321.85 642.095L1329.65 651.328C1334.82 657.54 1340.05 663.642 1345.12 669.83C1365.25 695.131 1384.08 721.637 1401.53 749.234Z" fill="url(#paint0_linear)"/>
</g>
<defs>
<filter id="filter0_f" x="0.00012207" y="0" width="1514.86" height="769.234" filterUnits="userSpaceOnUse" color-interpolation-filters="sRGB">
<feFlood flood-opacity="0" result="BackgroundImageFix"/>
<feBlend mode="normal" in="SourceGraphic" in2="BackgroundImageFix" result="shape"/>
<feGaussianBlur stdDeviation="10" result="effect1_foregroundBlur"/>
</filter>
<linearGradient id="paint0_linear" x1="147718" y1="-131247" x2="-466896" y2="-514358" gradientUnits="userSpaceOnUse">
<stop stop-color="#229A86"/>
<stop offset="0.2" stop-color="#1D8A7D"/>
<stop offset="0.6" stop-color="#106067"/>
<stop offset="1" stop-color="#1F4D6E"/>
</linearGradient>
</defs>
</svg>
